<svg id="Laag_1" data-name="Laag 1" xmlns="http://www.w3.org/2000/svg" viewBox="0 0 186.88 63.19"><defs><style>.cls-1{fill:#00274c;}.cls-2{fill:none;stroke:#231f20;stroke-width:2.01px;}.cls-3{fill:#80a1b6;}</style></defs><title>kabisa_logo_two_color</title><path class="cls-1" d="M325.18,420.54a6.8,6.8,0,0,1-1.77,5,5.37,5.37,0,0,1-4.1,1.6l-7.59.05h-3.49a1.68,1.68,0,0,0,0,3.36h8.63a8.24,8.24,0,0,1,0,16.47H300a6.73,6.73,0,0,1,1.76-5,5.27,5.27,0,0,1,4.09-1.53h11a1.69,1.69,0,0,0,0-3.37h-8.63A8.24,8.24,0,0,1,300,428.9a8.36,8.36,0,0,1,8.25-8.36Z" transform="translate(-202.42 -383.86)"/><path class="cls-1" d="M243.05,447.06a13,13,0,0,1-9.45-3.86,13.08,13.08,0,0,1,0-18.71,13.44,13.44,0,0,1,18.91,0,12.65,12.65,0,0,1,3.95,9.37v13.2Zm6.57-13.2a6.63,6.63,0,0,0-1.91-4.76,6.48,6.48,0,0,0-9.36,0,6.66,6.66,0,0,0-1.9,4.76,6.52,6.52,0,0,0,1.92,4.71,6.24,6.24,0,0,0,4.66,2h6.59Z" transform="translate(-202.42 -383.86)"/><path class="cls-1" d="M272.43,447.06a12.93,12.93,0,0,1-9.44-3.9,12.66,12.66,0,0,1-3.94-9.36V414.4a6.78,6.78,0,0,1,5,1.78,5.77,5.77,0,0,1,1.77,4.23v.19h6.6a13.09,13.09,0,0,1,9.46,3.84,13,13,0,0,1,0,18.72A13,13,0,0,1,272.43,447.06Zm0-20h-6.59v6.7a6.66,6.66,0,0,0,1.91,4.76,6.5,6.5,0,0,0,9.36,0,6.7,6.7,0,0,0,1.9-4.76,6.54,6.54,0,0,0-1.92-4.72A6.24,6.24,0,0,0,272.42,427.1Z" transform="translate(-202.42 -383.86)"/><path class="cls-1" d="M290.77,445.28a5.78,5.78,0,0,1-1.78-4.23V420.6a6.78,6.78,0,0,1,5,1.77,5.77,5.77,0,0,1,1.78,4.24v20.45A6.78,6.78,0,0,1,290.77,445.28Z" transform="translate(-202.42 -383.86)"/><path class="cls-1" d="M340.52,447.05a13,13,0,0,1-9.44-3.86,13.08,13.08,0,0,1,0-18.71,13.42,13.42,0,0,1,18.9,0,12.68,12.68,0,0,1,4,9.37v13.2Zm6.57-13.2a6.65,6.65,0,0,0-1.91-4.76,6.49,6.49,0,0,0-9.35,0,6.65,6.65,0,0,0-1.91,4.76,6.54,6.54,0,0,0,1.92,4.72,6.28,6.28,0,0,0,4.67,2h6.58Z" transform="translate(-202.42 -383.86)"/><path class="cls-2" d="M330.56,413.81" transform="translate(-202.42 -383.86)"/><path class="cls-1" d="M209.2,437.34v9.72h-6.78V420.6a6.81,6.81,0,0,1,5,1.77,5.8,5.8,0,0,1,1.77,4.24v4.23" transform="translate(-202.42 -383.86)"/><path class="cls-1" d="M207.36,433c14.2,0,12.7-12,12.7-12h6.78s1.61,18.48-19.48,18.48Z" transform="translate(-202.42 -383.86)"/><path class="cls-1" d="M222.24,433.26,228.58,447H221.8l-4.62-9.75S216.2,432,222.24,433.26Z" transform="translate(-202.42 -383.86)"/><path class="cls-3" d="M380.72,430.27c0,8.57-5.19,11.39-10.25,11.39-3,0-5.87-2.4-5.87-5.36v-.05c0-2.77,2-3.83,4.11-3.83h-.11c2,0,3.53,1.13,3.53,2.64a3.28,3.28,0,0,1-2.18,2.64h0a4,4,0,0,0,3.82-3.78c0-2-2.51-4.8-5.94-4.8a7.53,7.53,0,0,0-7.74,7.72c0,4.27,3.8,10.19,11.81,10.19h0c11.6,0,17.42-8.11,17.42-19.52v-.14c-.08-5.06-1.88-11-7.17-17-5.58-6.41-11.6-9.36-31.43-11.14-14.85-1.32-13.2-5.7-13.2-5.7s7.86-1.35,7.78-8.14c0,0-9-5.13-15.15,3.59-3.47,4.93-.92,11.33.59,13.64,0,0-4.47.37-4.86,6.68-.39,6.48,5.32,11.24,5.32,11.24s-1.78-9.69,2.52-10.8c2.27-.58,1.84.8,6.86,3.54,5.6,3.05,9.32.82,9.91.7a11.65,11.65,0,0,0,3.86,10.28s2.7-9.33,11-8.89c6.71.35,11,2.88,13.65,8A14,14,0,0,1,380.72,430.27Z" transform="translate(-202.42 -383.86)"/><path class="cls-1" d="M382.58,429.25c0,8.79-5,13.63-11.22,13.63-4.66,0-8-2.89-8-6.45v.12c0-3.8,2.56-5,4.86-5s4.17,1.51,4.17,3.37a3,3,0,0,1-1,2.2l0,0a3.29,3.29,0,0,0,1.88-2.92c0-1.69-2-4.15-5.16-4.15s-6.78,2.37-6.78,6.1c0,7.69,7.12,9.44,10.91,9.44,8.57,0,15.13-7.09,15.13-17.61v.47c0-.2,0-.4,0-.59a25,25,0,0,0-7.66-16.9c-6.78-6.62-12.67-8.2-29.52-10.19s-14.18-8.15-14.28-8.52c0,0,7.59-.18,8.89-6.5,0,0-7.71-4.43-13.11,4.06-3.07,4.83,0,11.81,2.08,14.17,0,0-6-.43-6.47,6.35-.18,2.77.82,5,2.88,7.92,0,0-2.47-7.89,1.35-10.53a4.42,4.42,0,0,1,3.85-.52c2.91.87,2.25,2.83,6.63,4.74,5.79,2.53,11.9-1.73,15.05-3,0,0-8.35,4.58-3.11,13.27,0,0,1.65-10.53,12.19-9.74,5.46.41,11,2,14.91,9.85a15.68,15.68,0,0,1,1.57,6.84Z" transform="translate(-202.42 -383.86)"/><path class="cls-3" d="M338,387.06c.24.58-.2,1.31-1,1.63a1.19,1.19,0,1,1,1-1.63Z" transform="translate(-202.42 -383.86)"/></svg>