<?xml version="1.0" encoding="utf-8"?>
<!-- Generator: Adobe Illustrator 19.2.1, SVG Export Plug-In . SVG Version: 6.00 Build 0)  -->
<svg version="1.1" id="layer" xmlns="http://www.w3.org/2000/svg" xmlns:xlink="http://www.w3.org/1999/xlink" x="0px" y="0px"
	 viewBox="0 0 652 652" style="enable-background:new 0 0 652 652;" xml:space="preserve">
<style type="text/css">
	.st0{clip-path:url(#SVGID_2_);fill:url(#SVGID_3_);}
</style>
<g>
	<defs>
		<path id="SVGID_1_" d="M186.7,283.5c-1,0-1.5,0.5-1.5,1.4v9.5c0,1,0.5,1.4,1.5,1.4h15.8v48.7H183c-1,0-1.5,0.5-1.5,1.5v9.4
			c0,1,0.5,1.4,1.5,1.4h53.6c1,0,1.5-0.5,1.5-1.4v-9.4c0-1-0.6-1.5-1.5-1.5h-21.8V285c0-1-0.5-1.4-1.5-1.4H186.7z M426.1,283.5
			c-1,0-1.5,0.5-1.5,1.4v9.5c0,1,0.6,1.4,1.5,1.4h15.8v48.7h-19.5c-1,0-1.5,0.5-1.5,1.5v9.4c0,1,0.5,1.4,1.5,1.4h53.6
			c1,0,1.5-0.5,1.5-1.4v-9.4c0-1-0.5-1.5-1.5-1.5h-21.8V285c-0.1-1-0.6-1.4-1.5-1.4H426.1z M609.9,283.2c-1.5,0-1.9,0.6-2.3,1.5l0,0
			l-20.9,55L565.2,285c-0.5-1.3-1.1-1.9-2.4-1.9h-9c-1,0-1.7,0.7-1.7,1.8c0,0.4,0.1,0.7,0.2,1c0,0,0,0,0,0v0l27.9,71l-2.4,6.3
			c-0.9,2-2.6,7.4-4.7,10.2c-1.7,2.4-2.8,3.2-4.6,4.1c-1.1,0.5-2.3,0.9-3.6,0.9c-0.5,0-1-0.1-1.5-0.1c-1.8-0.3-3.8-1-5.5-1.6
			c-1.1-0.4-1.8-0.9-2.9-0.9c-0.8,0-1.7,0.5-1.7,1.9v8.1c0,0,0,0,0,0c0,1.1,0.3,2,1.8,2.8c3.3,1.5,6.1,2.3,10.8,2.3
			c3.8-0.3,6.7-1.3,9.8-3.2c3.1-1.9,5.8-4.5,8-7.9c1.1-1.6,2-3.3,2.8-5c1.8-3.7,28.3-73.9,33.9-88.8c0.2-0.5,0.2-0.9,0.2-1.2
			c0-1-0.7-1.6-1.7-1.6H609.9z M354.6,292.1v-6.5c0-0.9-0.5-1.4-1.4-1.4h-9.4c-1,0-1.5,0.5-1.5,1.4v70.6c0,1,0.5,1.4,1.5,1.4h9.4
			c1,0,1.4-0.5,1.4-1.4v-43.4c0-8.3,6-17.5,18.1-17.5c12,0,18.1,9.3,18.1,17.5v43.4h0c0,1,0.5,1.4,1.5,1.4h9.5
			c0.9,0,1.4-0.5,1.4-1.4v-43.3v-0.3l0,0c-0.1-7.5-2.4-14.5-8.1-20.8c-5.1-5.6-14-8.9-22-8.9C360,282.9,354.6,292.1,354.6,292.1
			 M67.1,303.5c0,12.7,6.6,19,22.8,21.8l0.5,0.1c11.1,2,19.1,3.4,19.1,11.4c0,6.8-7.9,9.9-15.2,9.9c-9.1,0-14.6-4.3-15.7-12.2
			c-0.1-1-0.5-1.9-2-1.9h-9.2c-1.3,0-2,0.8-2,2c0,14.1,11.7,23.9,28.5,23.9s28.5-9.5,28.5-23.1c0-14.9-13.1-18.3-25.4-20.4
			c-15.4-2.5-17.5-7-17.5-11.4c0-6.9,7.2-9.3,13.4-9.3c8.4,0,13.5,3.2,15,9.6c0.3,1,0.5,1.9,2,1.9h8c1.3,0,2-0.8,2-2
			c0-12.7-10.9-21.2-27.2-21.2C75.2,282.4,67.1,293.3,67.1,303.5 M279.8,282.2c-16.7,3.4-29.3,19-29.3,37.8
			c0,21.2,16.1,38.4,36.1,38.4c9.1,0,17.5-3.6,23.8-9.6v9c0,14.1-7.4,21.9-20.8,21.9c-10.1,0-16.3-4.1-18.4-12.3
			c-0.3-1-0.5-1.9-2-1.9H261c-1.4,0-2.1,0.7-2.1,2.1c1.4,14.3,13.8,23.9,30.8,23.9c19.9,0,33.2-13.3,33.2-33v-73.5
			c0-1-0.5-1.4-1.5-1.4H312c-0.8,0-1.4,0.6-1.4,1.4v6.1c-4.7-4.4-10.5-7.6-16.8-8.9c-0.7-0.1-1.3,0.4-1.3,1.1v11.1
			c0,0.5,0.3,0.9,0.8,1.1c10.3,2.9,17.8,12.9,17.8,24.8c0,14.2-10.7,25.7-24,25.7c-13.2,0-24-11.5-24-25.7
			c0-11.7,7.3-21.5,17.2-24.6c0.5-0.1,0.8-0.6,0.8-1v-11.3c0-0.6-0.5-1.1-1.1-1.1C280,282.2,279.9,282.2,279.8,282.2 M199.4,261.3
			c0,5.6,4.5,10.1,10.1,10.1c5.6,0,10.1-4.5,10.1-10.1c0-5.6-4.5-10.1-10.1-10.1C203.9,251.2,199.4,255.7,199.4,261.3 M438.9,261.3
			c0,5.6,4.5,10.1,10.1,10.1c5.6,0,10.1-4.5,10.1-10.1c0-5.6-4.5-10.1-10.1-10.1C443.4,251.2,438.9,255.7,438.9,261.3 M499.6,274.2
			v9.3h-15.1c-1.4,0-2.1,0.7-2.1,2.1v7.7c0,1.4,0.7,2.1,2.1,2.1h15.1v59.5c0,1.4,0.7,2.1,2.1,2.1h8.2c1.4,0,2.1-0.7,2.1-2.1v-59.5
			h23.4c1.4,0,2.1-0.7,2.1-2.1v-7.7c0-1.4-0.7-2.1-2.1-2.1H512v-9.3c0-7.7,3.9-12.2,10.4-12.2c5,0,8.5,1.2,13.5,4.5
			c0.6,0.4,1,0.4,1.4,0.4c1,0,1.6-0.8,1.6-2.1v-7.6c0-1.4-0.2-2.1-1.5-3c-4.9-2.9-9.5-4.1-15.9-4.1
			C506.4,250.1,499.6,262.6,499.6,274.2 M85.9,248.8c-0.1,0-0.1,0-0.2,0c-36.6,4-65.2,35.1-65.2,72.8c0,40.4,32.8,73.2,73.2,73.2
			c40.4,0,73.2-32.8,73.2-73.2c0-37.7-28.5-68.8-65.2-72.8c-0.1,0-0.1,0-0.2,0c-0.1,0-0.2,0-0.3,0c-0.5,0-1,0.1-1.5,0.5
			c-0.3,0.3-0.5,0.8-0.5,1.3v9.4v0c0,0.5,0.4,1,0.8,1c30.6,3.2,54.4,29.1,54.4,60.5c0,33.6-27.3,60.9-60.9,60.9
			c-33.6,0-60.9-27.3-60.9-60.9c0-31.4,23.8-57.3,54.4-60.5c0.5,0,0.8-0.5,0.8-1v0c0,0,0-9.4,0-9.4c0-0.6-0.2-1-0.5-1.3
			c-0.4-0.4-1-0.5-1.5-0.5C86.1,248.7,86,248.8,85.9,248.8"/>
	</defs>
	<clipPath id="SVGID_2_">
		<use xlink:href="#SVGID_1_"  style="overflow:visible;"/>
	</clipPath>
	
		<linearGradient id="SVGID_3_" gradientUnits="userSpaceOnUse" x1="18.3148" y1="720.3982" x2="23.6183" y2="720.3982" gradientTransform="matrix(131.6491 -92.1817 92.1817 131.6491 -68936.0391 -92523.0625)">
		<stop  offset="0" style="stop-color:#5CBE7C"/>
		<stop  offset="0.5006" style="stop-color:#5CBE7C"/>
		<stop  offset="0.6786" style="stop-color:#52BF94"/>
		<stop  offset="1" style="stop-color:#3DC1C9"/>
	</linearGradient>
	<polygon class="st0" points="218,676.7 689.2,346.7 423.2,-33.2 -48.1,296.8 	"/>
</g>
</svg>
