<?xml version="1.0" encoding="UTF-8"?> <svg xmlns="http://www.w3.org/2000/svg" xmlns:xlink="http://www.w3.org/1999/xlink" width="480.168" height="120.001" viewBox="0 0 480.168 120.001"><defs><clipPath id="clip-path"><path id="Path_331" data-name="Path 331" d="M0,0H480.168V-120H0Z" fill="none"></path></clipPath></defs><g id="Group_875" data-name="Group 875" transform="translate(0 120.001)"><g id="Group_822" data-name="Group 822" clip-path="url(#clip-path)"><g id="Group_820" data-name="Group 820" transform="translate(107.714 -93.992)"><path id="Path_329" data-name="Path 329" d="M0,0C-.275-1.724-.689-4.964-4.687-4.964a4.248,4.248,0,0,0-4.481,4c0,3.033,1.378,3.653,10.546,7.789C10.891,11.1,13.3,15.509,13.3,21.438c0,7.444-4.274,15.647-17.785,15.647-14.751,0-18.4-9.65-18.4-16.2V19.232h12.96c0,5.928,3.653,6.962,5.308,6.962A4.92,4.92,0,0,0,.344,21.3c0-3.378-2.136-4.2-10-7.514C-13.235,12.338-22.128,8.754-22.128-.827s9.307-15.028,17.854-15.028c5.032,0,10.478,1.862,13.787,5.791C12.546-6.342,12.753-2.9,12.89,0Z" fill="#6f7175"></path></g><g id="Group_821" data-name="Group 821" transform="translate(152.324 -109.846)"><path id="Path_330" data-name="Path 330" d="M0,0A26.453,26.453,0,0,1,26.952,26.47c0,14.2-11.166,26.47-27.021,26.47A26.292,26.292,0,0,1-26.884,27.09a28.824,28.824,0,0,1,2-10.891A26.508,26.508,0,0,1,0,0M.207,41.5c9.237,0,13.717-8.409,13.717-14.958,0-6.618-4.48-15.1-13.855-15.1-9.031,0-13.925,7.72-13.925,14.889C-13.856,34.19-8.548,41.5.207,41.5" fill="#6f7175"></path></g></g><g id="Group_823" data-name="Group 823" transform="translate(185.221 -108.882)"><path id="Path_332" data-name="Path 332" d="M0,0H27.848V11.443H12.476v8.685H27.3V31.571H12.476V51.01H0Z" fill="#6f7175"></path></g><g id="Group_824" data-name="Group 824" transform="translate(229.68 -97.439)"><path id="Path_333" data-name="Path 333" d="M0,0H-10.065V-11.443H23.023V0h-10V39.567H0Z" fill="#6f7175"></path></g><g id="Group_827" data-name="Group 827" clip-path="url(#clip-path)"><g id="Group_825" data-name="Group 825" transform="translate(259.122 -108.882)"><path id="Path_334" data-name="Path 334" d="M0,0H15.716c8.617,0,12.616.827,16.337,4.964a11.766,11.766,0,0,1,3.034,8.409,11.519,11.519,0,0,1-5.929,10.271c8.2,2.9,8.41,9.719,8.41,11.856,0,4.067-1.585,8.548-4.687,11.1C28.194,50.528,24.816,51.01,16.2,51.01H0ZM12.477,19.37H17.1c1.792,0,5.514,0,5.514-4.067,0-3.86-3.515-3.86-5.514-3.86H12.477Zm0,20.2h6.136c1.653,0,6.479,0,6.479-4.894,0-4.411-4.412-4.411-6.479-4.411H12.477Z" fill="#6f7175"></path></g><g id="Group_826" data-name="Group 826" transform="translate(302.635 -108.882)"><path id="Path_335" data-name="Path 335" d="M0,0H16.13c8.961,0,12.408,1.1,15.716,3.654,4.2,3.309,6.273,8.685,6.273,13.924,0,5.859-3.032,14.476-12.683,16.062L39.291,51.01H24.4L12.615,34.536h-.139V51.01H0ZM12.476,25.643h4.619c7.652,0,8.548-4.825,8.548-7.307,0-4.618-3.378-6.893-8.41-6.893H12.476Z" fill="#6f7175"></path></g></g><path id="Path_337" data-name="Path 337" d="M354.491-108.882h13.028v51.01H354.491Z" fill="#6f7175"></path><g id="Group_829" data-name="Group 829" clip-path="url(#clip-path)"><g id="Group_828" data-name="Group 828" transform="translate(430.798 -76.966)"><path id="Path_338" data-name="Path 338" d="M0,0A26.146,26.146,0,0,1-25.781,20.059,26.529,26.529,0,0,1-52.665-6.48a26.318,26.318,0,0,1,26.746-26.4C-9.926-32.881-1.38-20.542,0-12.546H-13.649c-1.448-3.791-5.307-8.892-12.339-8.892-8.754,0-13.649,7.652-13.649,14.889,0,7.721,5.24,15.165,13.718,15.165,8.134,0,11.443-6.824,12.27-8.616Z" fill="#6f7175"></path></g></g><g id="Group_830" data-name="Group 830" transform="translate(465.416 -108.882)"><path id="Path_340" data-name="Path 340" d="M0,0-14.406,22.955h-.139V0H-27.572V51.01h13.027V28.952h.139L-.482,51.01H14.752L-3.239,25.437,13.649,0Z" fill="#6f7175"></path></g><path id="Path_341" data-name="Path 341" d="M373.772-97.439H348.267v-11.443h25.505Z" fill="#6f7175"></path><path id="Path_342" data-name="Path 342" d="M32.217-107.751h6.767V-120H32.217Z" fill="#ff7d2d"></path><path id="Path_343" data-name="Path 343" d="M38.342-108.394H32.861v-10.964h5.481Z" fill="#ff7d2b"></path><g id="Group_831" data-name="Group 831" transform="translate(15.195 -113.188)"><path id="Path_344" data-name="Path 344" d="M0,0,5.862-3.386,11.985,7.228,6.129,10.613Z" fill="#ec2b20"></path></g><g id="Group_832" data-name="Group 832" transform="translate(20.821 -115.697)"><path id="Path_345" data-name="Path 345" d="M0,0,5.482,9.5.737,12.245l-5.486-9.5Z" fill="#e42a1e"></path></g><path id="Path_346" data-name="Path 346" d="M.056-81.068H12.308v-6.767H.056Z" fill="#6545a3"></path><path id="Path_347" data-name="Path 347" d="M.7-81.71H11.665v-5.481H.7Z" fill="#6a43a3"></path><g id="Group_833" data-name="Group 833" transform="translate(3.436 -98.985)"><path id="Path_348" data-name="Path 348" d="M0,0,3.389-5.861,14,.263l-3.39,5.861Z" fill="#2da050"></path></g><g id="Group_834" data-name="Group 834" transform="translate(7.06 -103.968)"><path id="Path_349" data-name="Path 349" d="M0,0,9.5,5.481,6.753,10.23l-9.5-5.481Z" fill="#2ca14e"></path></g><g id="Group_835" data-name="Group 835" transform="translate(3.487 -69.904)"><path id="Path_350" data-name="Path 350" d="M0,0,10.612-6.13,13.988-.266,3.385,5.859Z" fill="#38bcea"></path></g><g id="Group_836" data-name="Group 836" transform="translate(4.364 -69.67)"><path id="Path_351" data-name="Path 351" d="M0,0,9.5-5.486l2.736,4.75L2.743,4.747Z" fill="#38bcea"></path></g><path id="Path_352" data-name="Path 352" d="M32.218-61.157h6.767v12.251H32.218Z" fill="#ff7d2b"></path><path id="Path_353" data-name="Path 353" d="M32.861-60.514h5.481v10.965H32.861Z" fill="#ff7d2b"></path><g id="Group_837" data-name="Group 837" transform="translate(15.209 -55.668)"><path id="Path_354" data-name="Path 354" d="M0,0,6.126-10.614l5.862,3.38L5.864,3.382Z" fill="#95cb45"></path></g><g id="Group_838" data-name="Group 838" transform="translate(16.087 -55.903)"><path id="Path_355" data-name="Path 355" d="M0,0,5.485-9.5l4.749,2.738L4.751,2.74Z" fill="#95cb45"></path></g><g id="Group_839" data-name="Group 839" transform="translate(44.019 -105.959)"><path id="Path_356" data-name="Path 356" d="M0,0,6.132-10.615l5.857,3.386L5.865,3.384Z" fill="#95cb45"></path></g><g id="Group_840" data-name="Group 840" transform="translate(50.386 -115.697)"><path id="Path_357" data-name="Path 357" d="M0,0-5.49,9.5l4.753,2.742,5.482-9.5Z" fill="#95cb45"></path></g><path id="Path_358" data-name="Path 358" d="M58.9-87.834H71.147v6.767H58.9Z" fill="#6545a3"></path><path id="Path_359" data-name="Path 359" d="M70.5-87.191H59.538v5.481H70.5Z" fill="#6a43a3"></path><g id="Group_841" data-name="Group 841" transform="translate(53.773 -98.723)"><path id="Path_360" data-name="Path 360" d="M0,0,10.6-6.123,14-.262,3.382,5.862Z" fill="#36b7e6"></path></g><g id="Group_842" data-name="Group 842" transform="translate(64.143 -103.968)"><path id="Path_361" data-name="Path 361" d="M0,0-9.493,5.481l2.74,4.749,9.5-5.481Z" fill="#38bcea"></path></g><g id="Group_843" data-name="Group 843" transform="translate(53.724 -70.171)"><path id="Path_362" data-name="Path 362" d="M0,0,3.387-5.864,14,.266,10.615,6.125Z" fill="#2da050"></path></g><g id="Group_844" data-name="Group 844" transform="translate(66.844 -69.67)"><path id="Path_363" data-name="Path 363" d="M0,0-9.5-5.487-12.243-.736l9.5,5.483Z" fill="#2ca14e"></path></g><g id="Group_845" data-name="Group 845" transform="translate(44.007 -62.902)"><path id="Path_364" data-name="Path 364" d="M0,0,5.862-3.381,11.99,7.234,6.125,10.615Z" fill="#ec2b20"></path></g><g id="Group_846" data-name="Group 846" transform="translate(55.12 -55.903)"><path id="Path_365" data-name="Path 365" d="M0,0-5.486-9.5l-4.749,2.738,5.483,9.5Z" fill="#e42a1e"></path></g><g id="Group_850" data-name="Group 850" clip-path="url(#clip-path)"><g id="Group_847" data-name="Group 847" transform="translate(108.848 -32.003)"><path id="Path_366" data-name="Path 366" d="M0,0-3.78,20.912-9.219,0h-2.756l-5.439,20.912L-21.194,0H-24.02L-18.9,24.726h2.685l5.651-21.264,5.617,21.264h2.684L2.826,0ZM12.3,25.08a8.47,8.47,0,0,0,4.433-1.131,7.5,7.5,0,0,0,2.914-3.214A10.841,10.841,0,0,0,20.674,15.9a10.846,10.846,0,0,0-1.024-4.84,7.511,7.511,0,0,0-2.914-3.214A8.47,8.47,0,0,0,12.3,6.711,8.465,8.465,0,0,0,7.87,7.842a7.507,7.507,0,0,0-2.915,3.214A10.846,10.846,0,0,0,3.931,15.9a10.841,10.841,0,0,0,1.024,4.839A7.5,7.5,0,0,0,7.87,23.949,8.465,8.465,0,0,0,12.3,25.08m0-1.943a5.3,5.3,0,0,1-4.327-1.961A8.075,8.075,0,0,1,6.368,15.9a8.076,8.076,0,0,1,1.608-5.281A5.3,5.3,0,0,1,12.3,8.654a5.306,5.306,0,0,1,4.327,1.961A8.081,8.081,0,0,1,18.237,15.9a8.08,8.08,0,0,1-1.607,5.28A5.306,5.306,0,0,1,12.3,23.137m11.84,1.589H26.58V15.542a8.364,8.364,0,0,1,.689-3.426,5.921,5.921,0,0,1,1.89-2.437A4.366,4.366,0,0,1,31.808,8.8a9.425,9.425,0,0,1,1.166.07V6.817a4.056,4.056,0,0,0-1.025-.106,5.656,5.656,0,0,0-3.338,1.007,5.784,5.784,0,0,0-2.1,2.879h-.07v-.424A30.764,30.764,0,0,0,26.3,7.065h-2.26q.1,1.306.106,4.309Zm25.493,0L42.465,13.917l6.747-6.852H46.28l-8.266,8.371V-1.484H35.577v26.21h2.437V18.4l2.791-2.826,6.005,9.148Zm4.245,0h2.437V8.937H61.44V7.065H56.318v-2.3a3.692,3.692,0,0,1,.795-2.526,2.751,2.751,0,0,1,2.173-.9,3.37,3.37,0,0,1,2.3.742L62.5.53A3.587,3.587,0,0,0,61.069-.3a6.051,6.051,0,0,0-1.925-.3A5.164,5.164,0,0,0,55.294.83a5.312,5.312,0,0,0-1.413,3.9V7.065H50.949V8.937h2.932Zm17.005.354a8.47,8.47,0,0,0,4.433-1.131,7.5,7.5,0,0,0,2.914-3.214A10.841,10.841,0,0,0,79.257,15.9a10.846,10.846,0,0,0-1.024-4.84,7.511,7.511,0,0,0-2.914-3.214,9.255,9.255,0,0,0-8.867,0,7.505,7.505,0,0,0-2.914,3.214,10.846,10.846,0,0,0-1.024,4.84,10.841,10.841,0,0,0,1.024,4.839,7.494,7.494,0,0,0,2.914,3.214,8.471,8.471,0,0,0,4.434,1.131m0-1.943a5.307,5.307,0,0,1-4.328-1.961,8.08,8.08,0,0,1-1.607-5.28,8.081,8.081,0,0,1,1.607-5.281,5.755,5.755,0,0,1,8.655,0A8.081,8.081,0,0,1,76.82,15.9a8.08,8.08,0,0,1-1.607,5.28,5.306,5.306,0,0,1-4.327,1.961m11.84,1.589h2.437V15.542a8.348,8.348,0,0,1,.689-3.426,5.921,5.921,0,0,1,1.89-2.437A4.366,4.366,0,0,1,90.391,8.8a9.409,9.409,0,0,1,1.165.07V6.817a4.042,4.042,0,0,0-1.024-.106,5.653,5.653,0,0,0-3.338,1.007,5.784,5.784,0,0,0-2.1,2.879h-.07v-.424a30.763,30.763,0,0,0-.142-3.108H82.62q.1,1.306.106,4.309Zm18.1.354a8.427,8.427,0,0,0,3.815-.83,6.414,6.414,0,0,0,2.649-2.455l-1.484-1.378a5.293,5.293,0,0,1-2.084,1.96,5.959,5.959,0,0,1-2.826.689,5.026,5.026,0,0,1-4.185-1.907,8.3,8.3,0,0,1-1.5-5.263,8.283,8.283,0,0,1,1.5-5.281,5.043,5.043,0,0,1,4.185-1.89,5.971,5.971,0,0,1,2.826.689,5.293,5.293,0,0,1,2.084,1.96L107.293,10a6.414,6.414,0,0,0-2.649-2.455,8.428,8.428,0,0,0-3.815-.831,7.526,7.526,0,0,0-5.952,2.42A9.875,9.875,0,0,0,92.74,15.9a9.874,9.874,0,0,0,2.137,6.764,7.526,7.526,0,0,0,5.952,2.42m23.44-9.4a10.07,10.07,0,0,0-1.96-6.606,6.7,6.7,0,0,0-5.458-2.367,7.242,7.242,0,0,0-5.81,2.455,10.067,10.067,0,0,0-2.1,6.765,9.818,9.818,0,0,0,2.137,6.729,7.485,7.485,0,0,0,5.917,2.42,8.375,8.375,0,0,0,3.832-.866,6.893,6.893,0,0,0,2.738-2.455l-1.448-1.377a5.943,5.943,0,0,1-2.155,1.925,6.121,6.121,0,0,1-2.9.689,5.14,5.14,0,0,1-3.974-1.59,7.234,7.234,0,0,1-1.677-4.521h12.857Zm-2.26-.707h-10.6a7.605,7.605,0,0,1,1.572-4.627,4.742,4.742,0,0,1,3.8-1.625,4.824,4.824,0,0,1,3.815,1.607,6.382,6.382,0,0,1,1.413,4.363Zm25.75-7.912L142.531,21.9,137.268,7.065h-2.543l6.641,17.661h2.3L150.3,7.065Zm6.658-3.427a1.872,1.872,0,0,0,1.36-.494,1.732,1.732,0,0,0,.513-1.307A1.777,1.777,0,0,0,155.777.5a2.114,2.114,0,0,0-2.719,0,1.777,1.777,0,0,0-.513,1.342,1.732,1.732,0,0,0,.513,1.307,1.871,1.871,0,0,0,1.359.494m-1.236,21.088h2.473V7.064h-2.473Zm13.246.354a7.1,7.1,0,0,0,3.073-.565l-.212-1.873a5.819,5.819,0,0,1-2.366.424,2.468,2.468,0,0,1-2.12-.9,4.868,4.868,0,0,1-.671-2.878V9.007h4.981V7.065h-4.981V1.554h-.141l-2.3.742V7.065h-3.179V9.007h3.179V19.6a6,6,0,0,0,1.236,4.044,4.372,4.372,0,0,0,3.5,1.431m11.318,0a6.847,6.847,0,0,0,5.722-2.967h.071A15.49,15.49,0,0,0,184,24.726h2.119a18.185,18.185,0,0,1-.388-3.32V12.928a5.959,5.959,0,0,0-1.749-4.592,7.023,7.023,0,0,0-4.963-1.625,8.4,8.4,0,0,0-3.744.813,7.618,7.618,0,0,0-2.791,2.331l1.343,1.555a5.432,5.432,0,0,1,2.137-2,6.222,6.222,0,0,1,2.914-.689,4.347,4.347,0,0,1,3.267,1.148,4.607,4.607,0,0,1,1.113,3.338v.954H179.3a9.016,9.016,0,0,0-5.493,1.466,4.8,4.8,0,0,0-1.96,4.08,4.974,4.974,0,0,0,1.66,3.867,6.071,6.071,0,0,0,4.239,1.5m.247-1.978a3.871,3.871,0,0,1-2.72-.937,3.165,3.165,0,0,1-1.024-2.454,3.178,3.178,0,0,1,1.289-2.72,6.057,6.057,0,0,1,3.656-.954h4.062v2.9A3.4,3.4,0,0,1,182.531,21a5,5,0,0,1-1.925,1.536,6.063,6.063,0,0,1-2.614.566m15.789,1.978a5.383,5.383,0,0,0,2.861-.777l-.423-1.519a4.785,4.785,0,0,1-1.7.388,1.646,1.646,0,0,1-1.431-.565,3.536,3.536,0,0,1-.406-1.978V-1.484h-2.472V20.664q0,4.416,3.567,4.416M201.1,3.638a1.872,1.872,0,0,0,1.36-.494,1.735,1.735,0,0,0,.512-1.307A1.78,1.78,0,0,0,202.463.5a2.116,2.116,0,0,0-2.72,0,1.78,1.78,0,0,0-.512,1.342,1.735,1.735,0,0,0,.512,1.307,1.873,1.873,0,0,0,1.36.494m-1.236,21.088h2.473V7.064h-2.473Zm13.246.354a7.1,7.1,0,0,0,3.073-.565l-.212-1.873a5.822,5.822,0,0,1-2.366.424,2.468,2.468,0,0,1-2.12-.9,4.868,4.868,0,0,1-.671-2.878V9.007H215.8V7.065h-4.981V1.554h-.141l-2.3.742V7.065H205.2V9.007h3.179V19.6a5.992,5.992,0,0,0,1.236,4.044,4.372,4.372,0,0,0,3.5,1.431m17.28-18.015L225.907,21.3,220.891,7.065h-2.649l6.57,16.884a15.277,15.277,0,0,1-2.6,4.8,4.163,4.163,0,0,1-3.162,1.378,4.874,4.874,0,0,1-1.377-.177v1.837a6.186,6.186,0,0,0,1.695.212,6.033,6.033,0,0,0,4.327-1.748,13.946,13.946,0,0,0,3.126-5.387l6.253-17.8Z" fill="#6f7175"></path></g><g id="Group_848" data-name="Group 848" transform="translate(107.658 -93.992)"><path id="Path_367" data-name="Path 367" d="M0,0C-.275-1.724-.689-4.964-4.687-4.964a4.248,4.248,0,0,0-4.481,4c0,3.033,1.378,3.653,10.546,7.789C10.891,11.1,13.3,15.509,13.3,21.438c0,7.444-4.274,15.647-17.785,15.647-14.751,0-18.4-9.65-18.4-16.2V19.232h12.96c0,5.928,3.653,6.962,5.308,6.962A4.92,4.92,0,0,0,.344,21.3c0-3.378-2.136-4.2-10-7.514C-13.235,12.338-22.128,8.754-22.128-.827s9.307-15.028,17.854-15.028c5.032,0,10.478,1.862,13.787,5.791C12.546-6.342,12.753-2.9,12.89,0Z" fill="#6f7175"></path></g><g id="Group_849" data-name="Group 849" transform="translate(152.268 -109.846)"><path id="Path_368" data-name="Path 368" d="M0,0A26.453,26.453,0,0,1,26.952,26.47c0,14.2-11.166,26.47-27.021,26.47A26.292,26.292,0,0,1-26.884,27.09a28.824,28.824,0,0,1,2-10.891A26.508,26.508,0,0,1,0,0M.207,41.5c9.237,0,13.717-8.409,13.717-14.958,0-6.618-4.48-15.1-13.855-15.1-9.031,0-13.925,7.72-13.925,14.889C-13.856,34.19-8.548,41.5.207,41.5" fill="#6f7175"></path></g></g><g id="Group_851" data-name="Group 851" transform="translate(185.165 -108.882)"><path id="Path_370" data-name="Path 370" d="M0,0H27.848V11.443H12.476v8.685H27.3V31.571H12.476V51.01H0Z" fill="#6f7175"></path></g><g id="Group_852" data-name="Group 852" transform="translate(229.625 -97.439)"><path id="Path_371" data-name="Path 371" d="M0,0H-10.065V-11.443H23.023V0h-10V39.567H0Z" fill="#6f7175"></path></g><g id="Group_855" data-name="Group 855" clip-path="url(#clip-path)"><g id="Group_853" data-name="Group 853" transform="translate(259.066 -108.882)"><path id="Path_372" data-name="Path 372" d="M0,0H15.716c8.617,0,12.616.827,16.337,4.964a11.766,11.766,0,0,1,3.034,8.409,11.519,11.519,0,0,1-5.929,10.271c8.2,2.9,8.41,9.719,8.41,11.856,0,4.067-1.585,8.548-4.687,11.1C28.194,50.528,24.816,51.01,16.2,51.01H0ZM12.477,19.37H17.1c1.792,0,5.514,0,5.514-4.067,0-3.86-3.515-3.86-5.514-3.86H12.477Zm0,20.2h6.136c1.653,0,6.479,0,6.479-4.894,0-4.411-4.412-4.411-6.479-4.411H12.477Z" fill="#6f7175"></path></g><g id="Group_854" data-name="Group 854" transform="translate(302.579 -108.882)"><path id="Path_373" data-name="Path 373" d="M0,0H16.13c8.961,0,12.408,1.1,15.716,3.654,4.2,3.309,6.273,8.685,6.273,13.924,0,5.859-3.032,14.476-12.683,16.062L39.291,51.01H24.4L12.615,34.536h-.139V51.01H0ZM12.476,25.643h4.619c7.652,0,8.548-4.825,8.548-7.307,0-4.618-3.378-6.893-8.41-6.893H12.476Z" fill="#6f7175"></path></g></g><path id="Path_375" data-name="Path 375" d="M354.435-108.882h13.028v51.01H354.435Z" fill="#6f7175"></path><g id="Group_857" data-name="Group 857" clip-path="url(#clip-path)"><g id="Group_856" data-name="Group 856" transform="translate(430.742 -76.966)"><path id="Path_376" data-name="Path 376" d="M0,0A26.146,26.146,0,0,1-25.781,20.059,26.529,26.529,0,0,1-52.665-6.48a26.318,26.318,0,0,1,26.746-26.4C-9.926-32.881-1.38-20.542,0-12.546H-13.649c-1.448-3.791-5.307-8.892-12.339-8.892-8.754,0-13.649,7.652-13.649,14.889,0,7.721,5.24,15.165,13.718,15.165,8.134,0,11.443-6.824,12.27-8.616Z" fill="#6f7175"></path></g></g><g id="Group_858" data-name="Group 858" transform="translate(465.36 -108.882)"><path id="Path_378" data-name="Path 378" d="M0,0-14.406,22.955h-.139V0H-27.573V51.01h13.028V28.952h.139L-.482,51.01H14.752L-3.239,25.437,13.648,0Z" fill="#6f7175"></path></g><path id="Path_379" data-name="Path 379" d="M373.717-97.439H348.212v-11.443h25.505Z" fill="#6f7175"></path><path id="Path_380" data-name="Path 380" d="M373.717-57.871H348.212V-69.314h25.505Z" fill="#6f7175"></path><path id="Path_381" data-name="Path 381" d="M32.161-107.751h6.767V-120H32.161Z" fill="#ff7d2d"></path><path id="Path_382" data-name="Path 382" d="M38.286-108.394H32.805v-10.964h5.481Z" fill="#ff7d2b"></path><g id="Group_859" data-name="Group 859" transform="translate(15.139 -113.188)"><path id="Path_383" data-name="Path 383" d="M0,0,5.862-3.386,11.985,7.228,6.129,10.613Z" fill="#ec2b20"></path></g><g id="Group_860" data-name="Group 860" transform="translate(20.765 -115.697)"><path id="Path_384" data-name="Path 384" d="M0,0,5.482,9.5.737,12.245l-5.486-9.5Z" fill="#e42a1e"></path></g><path id="Path_385" data-name="Path 385" d="M0-81.068H12.252v-6.767H0Z" fill="#6545a3"></path><path id="Path_386" data-name="Path 386" d="M.643-81.71H11.61v-5.481H.643Z" fill="#6a43a3"></path><g id="Group_861" data-name="Group 861" transform="translate(3.38 -98.985)"><path id="Path_387" data-name="Path 387" d="M0,0,3.389-5.861,14,.263l-3.39,5.861Z" fill="#2da050"></path></g><g id="Group_862" data-name="Group 862" transform="translate(7.004 -103.968)"><path id="Path_388" data-name="Path 388" d="M0,0,9.5,5.481,6.753,10.23l-9.5-5.481Z" fill="#2ca14e"></path></g><g id="Group_863" data-name="Group 863" transform="translate(3.431 -69.904)"><path id="Path_389" data-name="Path 389" d="M0,0,10.612-6.13,13.988-.266,3.385,5.859Z" fill="#38bcea"></path></g><g id="Group_864" data-name="Group 864" transform="translate(4.308 -69.67)"><path id="Path_390" data-name="Path 390" d="M0,0,9.5-5.486l2.736,4.75L2.743,4.747Z" fill="#38bcea"></path></g><path id="Path_391" data-name="Path 391" d="M32.162-61.157h6.767v12.251H32.162Z" fill="#ff7d2b"></path><path id="Path_392" data-name="Path 392" d="M32.805-60.514h5.481v10.965H32.805Z" fill="#ff7d2b"></path><g id="Group_865" data-name="Group 865" transform="translate(15.153 -55.668)"><path id="Path_393" data-name="Path 393" d="M0,0,6.126-10.614l5.862,3.38L5.864,3.382Z" fill="#95cb45"></path></g><g id="Group_866" data-name="Group 866" transform="translate(16.031 -55.903)"><path id="Path_394" data-name="Path 394" d="M0,0,5.485-9.5l4.749,2.738L4.751,2.74Z" fill="#95cb45"></path></g><g id="Group_867" data-name="Group 867" transform="translate(43.963 -105.959)"><path id="Path_395" data-name="Path 395" d="M0,0,6.132-10.615l5.857,3.386L5.865,3.384Z" fill="#95cb45"></path></g><g id="Group_868" data-name="Group 868" transform="translate(50.33 -115.697)"><path id="Path_396" data-name="Path 396" d="M0,0-5.49,9.5l4.753,2.742,5.482-9.5Z" fill="#95cb45"></path></g><path id="Path_397" data-name="Path 397" d="M58.84-87.834H71.091v6.767H58.84Z" fill="#6545a3"></path><path id="Path_398" data-name="Path 398" d="M70.448-87.191H59.482v5.481H70.448Z" fill="#6a43a3"></path><g id="Group_869" data-name="Group 869" transform="translate(53.717 -98.723)"><path id="Path_399" data-name="Path 399" d="M0,0,10.6-6.123,14-.262,3.382,5.862Z" fill="#36b7e6"></path></g><g id="Group_870" data-name="Group 870" transform="translate(64.087 -103.968)"><path id="Path_400" data-name="Path 400" d="M0,0-9.493,5.481l2.74,4.749,9.5-5.481Z" fill="#38bcea"></path></g><g id="Group_871" data-name="Group 871" transform="translate(53.668 -70.171)"><path id="Path_401" data-name="Path 401" d="M0,0,3.387-5.864,14,.266,10.615,6.125Z" fill="#2da050"></path></g><g id="Group_872" data-name="Group 872" transform="translate(66.788 -69.67)"><path id="Path_402" data-name="Path 402" d="M0,0-9.5-5.487-12.243-.736l9.5,5.483Z" fill="#2ca14e"></path></g><g id="Group_873" data-name="Group 873" transform="translate(43.951 -62.902)"><path id="Path_403" data-name="Path 403" d="M0,0,5.862-3.381,11.99,7.234,6.125,10.615Z" fill="#ec2b20"></path></g><g id="Group_874" data-name="Group 874" transform="translate(55.064 -55.903)"><path id="Path_404" data-name="Path 404" d="M0,0-5.486-9.5l-4.749,2.738,5.483,9.5Z" fill="#e42a1e"></path></g></g></svg> 