<?xml version="1.0" encoding="utf-8"?>
<!-- Generator: Adobe Illustrator 14.0.0, SVG Export Plug-In . SVG Version: 6.00 Build 43363)  -->
<!DOCTYPE svg PUBLIC "-//W3C//DTD SVG 1.0//EN" "http://www.w3.org/TR/2001/REC-SVG-20010904/DTD/svg10.dtd">
<svg version="1.0" id="Ebene_1" xmlns="http://www.w3.org/2000/svg" xmlns:xlink="http://www.w3.org/1999/xlink" x="0px" y="0px"
	 width="595.223px" height="798.833px" viewBox="0 0 595.223 798.833" enable-background="new 0 0 595.223 798.833"
	 xml:space="preserve">
<rect fill="none" width="595.027" height="798.563"/>
<path fill="#0071B9" d="M0,0.01v495.894c0,167.314,133.222,302.93,297.59,302.93c164.347,0,297.633-135.615,297.633-302.93V0.01H0
	 M579.575,495.904c0,158.506-126.283,287.002-281.985,287.002c-155.713,0-281.957-128.496-281.957-287.002V15.982h563.942V495.904z"
	/>
<path fill="#0071B9" d="M297.59,225.422c-99.223,0-185.769,55.428-231.435,137.444c-21.854,39.318-34.313,84.716-34.313,133.038
	c0,149.384,118.96,270.481,265.747,270.481c146.786,0,265.756-121.098,265.756-270.481
	C563.346,346.552,444.376,225.422,297.59,225.422 M244.003,296.148l-7.109-47.085c19.438-4.953,39.764-7.682,60.696-7.682
	c125.451,0,229.04,94.182,247.034,216.744c-17.518,9.456-37.333,14.993-58.483,14.993c-22.927,0-44.397-6.241-62.905-17.184
	c-18.503-10.812-40.021-17.085-62.914-17.085c-22.871,0-44.302,6.273-62.795,17.076c-18.507,10.951-39.949,17.192-62.886,17.192
	c-21.505,0-41.668-5.688-59.395-15.416l8.692-76.828l82.395-9.698v-4.245l-29.785-3.488l7.455-49.264l48.537-7.552v-2.86
	L244.003,296.148z M183.938,357.242l-5.701-50.518l48.02,7.454l7.354,48.906L183.938,357.242z M233.212,249.918l-6.955,46.229
	l-48.365,7.585l-3.316-29.416C192.811,263.785,212.475,255.532,233.212,249.918z M84.39,362.866
	c21.213-35.146,50.619-64.539,85.483-85.698l-9.145,80.074l-78.365,9.222C83.046,365.26,83.676,364.036,84.39,362.866z
	 M79.631,371.35l81.098,9.524l8.407,73.739c-17.93-9.956-38.396-15.764-60.259-15.764c-20.848,0-40.404,5.438-57.748,14.55
	C56.047,424.061,65.755,396.378,79.631,371.35z M48.852,470.66c17.89-9.97,38.214-15.896,60.025-15.896
	c22.903,0,44.378,6.231,62.882,17.128h0.02c18.507,10.956,39.992,17.119,62.862,17.119c22.937,0,44.378-6.229,62.886-17.119
	c18.494-10.82,39.924-17.128,62.795-17.128c22.893,0,44.411,6.308,62.914,17.128c18.508,10.956,39.979,17.119,62.905,17.119
	c21.885,0,42.427-5.871,60.402-15.894c0.445,5.127,0.619,10.314,0.79,15.526c-18.158,10.348-38.981,16.316-61.192,16.316
	c-22.927,0-44.397-6.177-62.905-17.14c-18.503-10.878-40.021-17.088-62.914-17.088c-22.871,0-44.302,6.274-62.795,17.088
	c-18.507,10.909-39.949,17.14-62.886,17.14c-22.87,0-44.355-6.23-62.862-17.14h-0.02c-18.503-10.878-39.979-17.088-62.882-17.088
	c-22.233,0-42.97,6.113-61.108,16.438C47.963,481.611,48.332,476.097,48.852,470.66z M50.521,533.454
	c17.474-9.368,37.249-14.92,58.355-14.92c22.903,0,44.378,6.231,62.882,17.153h0.02c18.507,10.908,39.992,17.109,62.862,17.109
	c22.937,0,44.378-6.254,62.886-17.109c18.494-10.922,39.924-17.153,62.795-17.153c21.648,0,41.92,5.756,59.709,15.526l-8.755,77.067
	l-82.387,9.685v4.322l29.797,3.481l-7.389,49.176l-48.593,7.649v2.88l48.593,7.597l7.018,46.796
	c-19.455,4.96-39.76,7.756-60.725,7.756C172.03,750.469,68.375,656.201,50.521,533.454z M417.341,688.366l3.315,28.973
	c-18.245,10.51-37.854,18.829-58.559,24.474l6.892-45.895L417.341,688.366z M361.631,628.971l49.645,5.827l5.744,50.536
	l-48.03-7.543L361.631,628.971z M425.401,714.628l9.102-79.83l77.859-9.131C491.092,662.159,461.199,692.886,425.401,714.628z
	 M515.265,620.662l-80.762-9.534l-8.406-74.022c17.866,9.937,38.258,15.691,60.044,15.691c20.869,0,40.436-5.409,57.793-14.618
	C539.077,567.681,529.219,595.47,515.265,620.662z M546.425,521.016c-17.965,10.013-38.442,15.831-60.284,15.831
	c-22.927,0-44.397-6.21-62.905-17.109c-18.503-10.941-40.021-17.161-62.914-17.161c-22.871,0-44.302,6.241-62.795,17.161
	c-18.507,10.855-39.949,17.109-62.886,17.109c-22.87,0-44.355-6.254-62.862-17.109h-0.02
	c-18.503-10.941-39.979-17.161-62.882-17.161c-21.908,0-42.343,5.959-60.254,15.981c-0.442-5.137-0.616-10.325-0.747-15.481
	c18.118-10.315,38.811-16.405,61-16.405c22.903,0,44.378,6.197,62.882,17.119h0.02c18.507,10.933,39.992,17.096,62.862,17.096
	c22.937,0,44.378-6.241,62.886-17.096c18.494-10.898,39.924-17.119,62.795-17.119c22.893,0,44.411,6.221,62.914,17.129
	c18.508,10.923,39.979,17.086,62.905,17.086c22.189,0,42.96-5.971,61.086-16.228C547.062,510.128,546.921,515.621,546.425,521.016z"
	/>
<path fill="#0071B9" d="M215.996,71.215H188.42v36.511h-28.687V71.215h-27.585v91.865h27.585v-36.112h28.687v36.112h27.576V71.215
	 M311.944,144.63V71.215h-27.574v91.865h49.872l4.137-18.45H311.944z M263.982,71.215h-27.585v91.865h27.585V71.215z
	 M375.782,71.215h-27.564v91.865h27.564V71.215z M511.73,94.648c0-4.973,4.943-7.3,12.895-7.3c8.688,0,18.113,1.918,24.529,4.625
	l-2.297-20c-7.15-1.539-13.544-2.666-25.268-2.666c-22.317,0-37.42,8.94-37.42,27.662c0,32.296,43.076,25.753,43.076,40.735
	c0,5.786-4.182,8.844-14.354,8.844c-9.047,0-23.046-3.058-31.345-7.304l3.021,21.16c8.3,3.055,19.624,4.594,28.712,4.594
	c23.023,0,41.92-7.672,41.92-30.727C555.2,103.501,511.73,109.265,511.73,94.648z M433.963,141.173
	c25.678,0,41.917-13.447,41.917-36.904c0-25.75-17.387-34.962-45.71-34.962c-10.966,0-24.184,0.748-33.63,1.908v91.865h27.575
	v-21.907H433.963z M448.664,104.671c0,11.898-5.678,19.969-20.01,19.969h-4.539V86.687c1.593-0.087,3.151-0.087,4.539-0.087
	C442.239,86.6,448.664,93.113,448.664,104.671z M79.253,141.173c25.701,0,41.93-13.447,41.93-36.904
	c0-25.75-17.357-34.962-45.699-34.962c-10.942,0-24.161,0.748-33.587,1.908v91.865H69.46v-21.907H79.253z M94.001,104.671
	c0,11.898-5.668,19.969-20.013,19.969H69.46V86.687c1.604-0.087,3.12-0.087,4.528-0.087C87.596,86.6,94.001,93.113,94.001,104.671z"
	/>
</svg>
